<?xml version="1.0" encoding="UTF-8"?>
<svg xmlns="http://www.w3.org/2000/svg" width="1200" height="1500" viewBox="0 0 1200 1500" role="img" aria-labelledby="title desc">
  <title id="title">EnduroGrip Compression Socks</title>
  <desc id="desc">Product main image for EnduroGrip Compression Socks</desc>
  <defs>
    <linearGradient id="bg" x1="0" y1="0" x2="0" y2="1">
      <stop offset="0%" stop-color="#f8f8ff"/>
      <stop offset="100%" stop-color="#ececff"/>
    </linearGradient>
    <radialGradient id="halo" cx="50%" cy="40%" r="60%">
      <stop offset="0%" stop-color="#ffffff" stop-opacity="0.75"/>
      <stop offset="100%" stop-color="#ffffff" stop-opacity="0"/>
    </radialGradient>
  </defs>

  <rect width="1200" height="1500" fill="url(#bg)"/>
  <ellipse cx="600" cy="700" rx="420" ry="360" fill="url(#halo)"/>

  <g>
    <path d="M500 430 L590 430 L590 760 C590 790 575 815 550 830 L500 860 Z" fill="#4338ca"/>
      <path d="M610 430 L700 430 L700 760 C700 790 685 815 660 830 L610 860 Z" fill="#4338ca"/>
      <rect x="500" y="470" width="90" height="24" fill="#ffffff" opacity="0.75"/>
      <rect x="610" y="470" width="90" height="24" fill="#ffffff" opacity="0.75"/>
  </g>

  <g>
    <rect x="180" y="1180" width="840" height="220" rx="28" fill="#ffffff" fill-opacity="0.82"/>
    <text x="220" y="1260" fill="#0f172a" font-family="'Segoe UI', Arial, sans-serif" font-size="52" font-weight="700">EnduroGrip Compression Socks</text>
    <text x="220" y="1322" fill="#334155" font-family="'Segoe UI', Arial, sans-serif" font-size="32" font-weight="500">Curator AI Product Visual</text>
  </g>
</svg>